<svg width="131" height="22" viewBox="0 0 131 22" fill="none" xmlns="http://www.w3.org/2000/svg">
<g clip-path="url(#clip0_298_202)">
<path d="M43.23 8.59001C42.59 8.59001 42 8.48001 41.46 8.27001C40.92 8.06001 40.45 7.76001 40.06 7.37001C39.66 6.98001 39.35 6.53001 39.13 6.01001C38.91 5.49001 38.79 4.92001 38.79 4.29001C38.79 3.66001 38.9 3.09001 39.13 2.57001C39.35 2.05001 39.67 1.60001 40.07 1.21001C40.47 0.820006 40.94 0.520005 41.48 0.310005C42.02 0.100005 42.61 -0.00999451 43.25 -0.00999451C43.89 -0.00999451 44.5 0.100005 45.04 0.320005C45.59 0.540005 46.05 0.870005 46.44 1.30001L45.66 2.06001C45.34 1.72001 44.98 1.47001 44.58 1.31001C44.18 1.15001 43.75 1.06001 43.3 1.06001C42.85 1.06001 42.39 1.14001 41.99 1.30001C41.59 1.46001 41.24 1.68001 40.94 1.97001C40.64 2.26001 40.41 2.60001 40.25 3.00001C40.09 3.40001 40 3.83001 40 4.29001C40 4.75001 40.08 5.18001 40.25 5.58001C40.41 5.98001 40.64 6.32001 40.94 6.61001C41.24 6.90001 41.59 7.12001 41.99 7.28001C42.39 7.44001 42.83 7.52001 43.3 7.52001C43.77 7.52001 44.18 7.44001 44.58 7.27001C44.98 7.11001 45.34 6.85001 45.66 6.51001L46.44 7.27001C46.06 7.70001 45.59 8.03001 45.04 8.25001C44.49 8.47001 43.89 8.59001 43.23 8.59001Z" fill="#1D1D1B"/>
<path d="M51.28 8.59001C50.64 8.59001 50.05 8.48001 49.5 8.27001C48.95 8.05001 48.48 7.75001 48.08 7.36001C47.68 6.97001 47.37 6.52001 47.14 6.00001C46.92 5.48001 46.8 4.91001 46.8 4.30001C46.8 3.69001 46.91 3.12001 47.14 2.60001C47.36 2.08001 47.68 1.63001 48.08 1.24001C48.48 0.85001 48.95 0.55001 49.5 0.33001C50.04 0.11001 50.64 0.0100098 51.29 0.0100098C51.94 0.0100098 52.52 0.12001 53.06 0.33001C53.6 0.54001 54.07 0.84001 54.48 1.23001C54.88 1.62001 55.2 2.07001 55.42 2.59001C55.64 3.11001 55.75 3.68001 55.75 4.31001C55.75 4.94001 55.64 5.51001 55.42 6.03001C55.2 6.55001 54.89 7.00001 54.48 7.39001C54.08 7.78001 53.6 8.08001 53.06 8.29001C52.52 8.50001 51.93 8.61001 51.29 8.61001L51.28 8.59001ZM51.28 7.52001C51.74 7.52001 52.17 7.44001 52.57 7.28001C52.97 7.12001 53.31 6.89001 53.6 6.60001C53.89 6.31001 54.12 5.97001 54.28 5.57001C54.44 5.18001 54.53 4.75001 54.53 4.29001C54.53 3.83001 54.45 3.40001 54.28 3.01001C54.12 2.62001 53.89 2.28001 53.6 1.98001C53.31 1.68001 52.96 1.46001 52.57 1.30001C52.17 1.14001 51.74 1.06001 51.28 1.06001C50.82 1.06001 50.37 1.14001 49.98 1.30001C49.58 1.46001 49.24 1.69001 48.94 1.98001C48.64 2.27001 48.41 2.61001 48.25 3.01001C48.09 3.40001 48 3.83001 48 4.29001C48 4.75001 48.08 5.18001 48.25 5.57001C48.42 5.96001 48.64 6.30001 48.94 6.60001C49.24 6.90001 49.58 7.12001 49.98 7.28001C50.38 7.44001 50.81 7.52001 51.28 7.52001Z" fill="#1D1D1B"/>
<path d="M57.45 8.50001V0.100006H58.43L63.99 7.00001H63.47V0.100006H64.67V8.50001H63.69L58.13 1.60001H58.65V8.50001H57.45Z" fill="#1D1D1B"/>
<path d="M70.83 8.59001C70.19 8.59001 69.6 8.48001 69.06 8.27001C68.52 8.06001 68.05 7.76001 67.66 7.37001C67.26 6.98001 66.95 6.53001 66.73 6.01001C66.51 5.49001 66.39 4.92001 66.39 4.29001C66.39 3.66001 66.5 3.09001 66.73 2.57001C66.95 2.05001 67.27 1.60001 67.67 1.21001C68.07 0.820006 68.54 0.520005 69.08 0.310005C69.62 0.100005 70.21 -0.00999451 70.85 -0.00999451C71.49 -0.00999451 72.1 0.100005 72.64 0.320005C73.19 0.540005 73.65 0.870005 74.04 1.30001L73.26 2.06001C72.94 1.72001 72.58 1.47001 72.18 1.31001C71.78 1.15001 71.35 1.06001 70.9 1.06001C70.45 1.06001 69.99 1.14001 69.59 1.30001C69.19 1.46001 68.84 1.68001 68.54 1.97001C68.24 2.26001 68.01 2.60001 67.85 3.00001C67.69 3.40001 67.6 3.83001 67.6 4.29001C67.6 4.75001 67.68 5.18001 67.85 5.58001C68.01 5.98001 68.24 6.32001 68.54 6.61001C68.84 6.90001 69.19 7.12001 69.59 7.28001C69.99 7.44001 70.43 7.52001 70.9 7.52001C71.37 7.52001 71.78 7.44001 72.18 7.27001C72.58 7.11001 72.94 6.85001 73.26 6.51001L74.04 7.27001C73.66 7.70001 73.19 8.03001 72.64 8.25001C72.09 8.47001 71.49 8.59001 70.83 8.59001Z" fill="#1D1D1B"/>
<path d="M75.51 8.50001V0.100006H76.71V8.50001H75.51Z" fill="#1D1D1B"/>
<path d="M79.11 8.50001V0.100006H85.04V1.14001H80.31V7.45001H85.21V8.49001H79.11V8.50001ZM80.2 4.74001V3.72001H84.52V4.74001H80.2Z" fill="#1D1D1B"/>
<path d="M87.03 8.50001V0.100006H90.31C91.4 0.100006 92.26 0.360006 92.88 0.870006C93.5 1.38001 93.82 2.10001 93.82 3.02001C93.82 3.63001 93.68 4.15001 93.4 4.59001C93.12 5.03001 92.72 5.36001 92.2 5.59001C91.68 5.82001 91.05 5.94001 90.32 5.94001H87.7L88.24 5.39001V8.50001H87.04H87.03ZM88.23 5.51001L87.69 4.92001H90.27C91.04 4.92001 91.62 4.75001 92.02 4.42001C92.41 4.09001 92.61 3.62001 92.61 3.02001C92.61 2.42001 92.41 1.96001 92.02 1.63001C91.62 1.30001 91.04 1.14001 90.27 1.14001H87.69L88.23 0.540006V5.51001ZM92.65 8.50001L90.51 5.45001H91.79L93.95 8.50001H92.64H92.65Z" fill="#1D1D1B"/>
<path d="M99.43 8.59001C98.78 8.59001 98.19 8.48001 97.64 8.27001C97.09 8.06001 96.62 7.76001 96.22 7.37001C95.82 6.98001 95.51 6.53001 95.28 6.01001C95.06 5.49001 94.94 4.92001 94.94 4.29001C94.94 3.66001 95.05 3.09001 95.28 2.57001C95.5 2.05001 95.82 1.60001 96.22 1.21001C96.62 0.820006 97.1 0.520005 97.64 0.310005C98.18 0.100005 98.78 -0.00999451 99.44 -0.00999451C100.1 -0.00999451 100.71 0.100005 101.26 0.310005C101.81 0.530005 102.28 0.850005 102.66 1.28001L101.92 2.02001C101.58 1.68001 101.2 1.44001 100.8 1.28001C100.4 1.12001 99.96 1.05001 99.49 1.05001C99.02 1.05001 98.56 1.13001 98.15 1.29001C97.74 1.45001 97.38 1.67001 97.08 1.96001C96.78 2.25001 96.55 2.59001 96.38 2.99001C96.22 3.39001 96.13 3.82001 96.13 4.28001C96.13 4.74001 96.21 5.16001 96.38 5.56001C96.54 5.96001 96.78 6.30001 97.08 6.59001C97.38 6.88001 97.73 7.11001 98.14 7.27001C98.55 7.43001 98.99 7.51001 99.47 7.51001C99.92 7.51001 100.35 7.44001 100.76 7.30001C101.17 7.16001 101.55 6.93001 101.91 6.60001L102.59 7.51001C102.17 7.86001 101.69 8.13001 101.13 8.31001C100.57 8.49001 100 8.58001 99.41 8.58001L99.43 8.59001ZM102.61 7.52001L101.46 7.36001V4.24001H102.61V7.52001Z" fill="#1D1D1B"/>
<path d="M104.78 8.50001V0.100006H110.71V1.14001H105.98V7.45001H110.88V8.49001H104.78V8.50001ZM105.87 4.74001V3.72001H110.19V4.74001H105.87Z" fill="#1D1D1B"/>
<path d="M112.7 8.50001V0.100006H115.98C117.07 0.100006 117.92 0.360006 118.55 0.870006C119.17 1.39001 119.49 2.10001 119.49 3.02001C119.49 3.63001 119.35 4.15001 119.07 4.59001C118.79 5.03001 118.39 5.36001 117.87 5.59001C117.35 5.82001 116.72 5.94001 115.99 5.94001H113.37L113.91 5.39001V8.50001H112.71H112.7ZM113.9 5.51001L113.36 4.92001H115.94C116.71 4.92001 117.29 4.75001 117.69 4.42001C118.09 4.09001 118.28 3.62001 118.28 3.02001C118.28 2.42001 118.08 1.96001 117.69 1.63001C117.29 1.30001 116.71 1.14001 115.94 1.14001H113.36L113.9 0.540006V5.51001ZM118.32 8.50001L116.18 5.45001H117.46L119.62 8.50001H118.31H118.32Z" fill="#1D1D1B"/>
<path d="M121.3 8.50001V0.100006H122.5V8.50001H121.3Z" fill="#1D1D1B"/>
<path d="M124.9 8.50001V0.100006H130.83V1.14001H126.1V7.45001H131V8.49001H124.9V8.50001ZM125.99 4.74001V3.72001H130.31V4.74001H125.99Z" fill="#1D1D1B"/>
<path d="M38.79 21.34V13.51H39.36V21.34H38.79Z" fill="#1D1D1B"/>
<path d="M42.09 21.34V13.51H42.57L48.15 20.63H47.89V13.51H48.46V21.34H47.99L42.4 14.22H42.66V21.34H42.09Z" fill="#1D1D1B"/>
<path d="M54.06 21.34V13.51H56.87C57.53 13.51 58.09 13.61 58.56 13.82C59.03 14.03 59.39 14.33 59.64 14.72C59.89 15.11 60.02 15.59 60.02 16.15C60.02 16.71 59.89 17.16 59.64 17.56C59.39 17.96 59.02 18.26 58.56 18.47C58.1 18.68 57.53 18.78 56.87 18.78H54.38L54.64 18.51V21.34H54.07H54.06ZM54.63 18.54L54.37 18.26H56.86C57.7 18.26 58.34 18.08 58.78 17.71C59.22 17.34 59.43 16.82 59.43 16.15C59.43 15.48 59.21 14.95 58.78 14.58C58.34 14.21 57.7 14.03 56.86 14.03H54.37L54.63 13.75V18.55V18.54Z" fill="#1D1D1B"/>
<path d="M60.25 21.34L63.85 13.51H64.42L68.02 21.34H67.41L64.01 13.87H64.26L60.87 21.34H60.25ZM61.57 19.13L61.76 18.65H66.45L66.64 19.13H61.57Z" fill="#1D1D1B"/>
<path d="M69.44 21.34V13.51H72.25C73.23 13.51 74.01 13.74 74.57 14.2C75.13 14.66 75.41 15.31 75.41 16.15C75.41 16.69 75.28 17.16 75.03 17.55C74.78 17.94 74.41 18.24 73.95 18.46C73.49 18.68 72.92 18.78 72.26 18.78H69.77L70.03 18.51V21.34H69.46H69.44ZM70.01 18.54L69.75 18.27H72.24C73.08 18.27 73.72 18.08 74.16 17.71C74.6 17.34 74.81 16.82 74.81 16.14C74.81 15.46 74.59 14.94 74.16 14.57C73.72 14.2 73.08 14.02 72.24 14.02H69.75L70.01 13.74V18.54ZM74.87 21.34L72.83 18.5H73.48L75.52 21.34H74.87Z" fill="#1D1D1B"/>
<path d="M77.49 21.34V13.51H78.06V21.34H77.49Z" fill="#1D1D1B"/>
<path d="M82.84 21.39C82.26 21.39 81.71 21.29 81.19 21.09C80.67 20.89 80.27 20.64 79.99 20.32L80.25 19.9C80.52 20.18 80.89 20.41 81.35 20.6C81.81 20.79 82.31 20.89 82.83 20.89C83.35 20.89 83.78 20.82 84.11 20.68C84.44 20.54 84.69 20.36 84.85 20.13C85.01 19.9 85.09 19.64 85.09 19.36C85.09 19.02 85 18.76 84.82 18.56C84.64 18.36 84.41 18.2 84.12 18.08C83.83 17.96 83.51 17.86 83.17 17.78C82.83 17.7 82.48 17.61 82.13 17.52C81.78 17.43 81.46 17.31 81.17 17.16C80.88 17.01 80.65 16.81 80.47 16.55C80.29 16.29 80.21 15.96 80.21 15.55C80.21 15.18 80.31 14.83 80.5 14.52C80.69 14.21 81 13.95 81.41 13.76C81.82 13.57 82.34 13.47 82.99 13.47C83.42 13.47 83.85 13.53 84.27 13.66C84.69 13.79 85.05 13.96 85.35 14.17L85.14 14.63C84.81 14.41 84.46 14.24 84.08 14.13C83.7 14.02 83.34 13.97 82.99 13.97C82.49 13.97 82.08 14.04 81.75 14.18C81.42 14.32 81.18 14.51 81.02 14.74C80.86 14.97 80.79 15.24 80.79 15.53C80.79 15.87 80.88 16.13 81.05 16.34C81.23 16.54 81.46 16.7 81.75 16.82C82.04 16.94 82.36 17.04 82.71 17.12C83.06 17.2 83.41 17.29 83.75 17.38C84.09 17.47 84.41 17.59 84.7 17.74C84.99 17.89 85.22 18.09 85.4 18.34C85.58 18.59 85.67 18.92 85.67 19.32C85.67 19.69 85.57 20.03 85.37 20.34C85.17 20.66 84.86 20.91 84.45 21.1C84.04 21.29 83.51 21.39 82.86 21.39H82.84Z" fill="#1D1D1B"/>
<path d="M13.69 12.18C11.14 12.24 9 14.13 8.51 16.6C8.45 16.9 8.51 17.24 8.4 17.54H5.38C5.34 14.63 2.93 12.21 0 12.18V9.07001C2.94 9.18001 5.37 6.58001 5.38 3.70001H8.36C8.52 4.16001 8.5 4.65001 8.62 5.13001C9.1 7.03001 11.03 8.84001 13.01 9.05001C13.21 9.07001 13.69 9.17001 13.77 8.93001C13.86 8.67001 13.88 8.20001 13.98 7.88001C16.08 0.510006 24.82 -2.45999 30.89 2.34001C36.96 7.14001 36.04 16.14 29.59 19.85C23.14 23.56 14.85 19.58 13.69 12.18ZM16.81 12.17C18.05 18.03 25.6 20.54 30.02 15.56C32.53 12.73 32.46 8.30001 29.85 5.56001C25.77 1.28001 19.18 2.94001 17.19 7.89001C17.13 8.04001 16.81 8.95001 16.81 9.02001C16.82 9.22001 17.01 9.06001 17.02 9.06001H29.04L29.17 9.19001V12.17H25.81V15.78H22.7V12.17H16.82H16.81ZM8.91 10.74C9.01 10.59 8.09 9.96001 7.94 9.82001C7.57 9.46001 7.28 9.03001 6.93 8.64001L5.76 9.90001L4.88 10.61L6.44 12.08L6.82 12.67L6.99 12.62C7.49 11.9 8.15 11.18 8.92 10.74H8.91Z" fill="#1D1D1B"/>
</g>
<defs>
<clipPath id="clip0_298_202">
<rect width="131" height="21.39" fill="white"/>
</clipPath>
</defs>
</svg>
