<svg width="35" height="22" viewBox="0 0 35 22" fill="none" xmlns="http://www.w3.org/2000/svg">
<g clip-path="url(#clip0_298_226)">
<path d="M13.69 12.17C11.14 12.23 9 14.12 8.51 16.59C8.45 16.89 8.51 17.23 8.4 17.53H5.38C5.34 14.62 2.93 12.2 0 12.17V9.06C2.94 9.17 5.37 6.57 5.38 3.69H8.36C8.52 4.15 8.5 4.64 8.62 5.12C9.1 7.02 11.03 8.83 13.01 9.04C13.21 9.06 13.69 9.16 13.77 8.92C13.86 8.66 13.88 8.19 13.98 7.87C16.08 0.509998 24.82 -2.47 30.89 2.34C36.96 7.15 36.04 16.14 29.59 19.85C23.14 23.56 14.85 19.58 13.69 12.18V12.17ZM16.81 12.16C18.05 18.02 25.6 20.53 30.02 15.55C32.53 12.72 32.46 8.29 29.85 5.55C25.77 1.27 19.18 2.93 17.19 7.88C17.13 8.03 16.81 8.94 16.81 9.01C16.82 9.21 17.01 9.05 17.02 9.05H29.04L29.17 9.18V12.16H25.81V15.77H22.7V12.16H16.82H16.81ZM8.91 10.73C9.01 10.58 8.09 9.95 7.94 9.81C7.57 9.45 7.28 9.02 6.93 8.63L5.76 9.89L4.88 10.6L6.44 12.07L6.82 12.66L6.99 12.61C7.49 11.89 8.15 11.17 8.92 10.73H8.91Z" fill="#1D1D1B"/>
</g>
<defs>
<clipPath id="clip0_298_226">
<rect width="34.88" height="21.29" fill="white"/>
</clipPath>
</defs>
</svg>
